<?xml version="1.0" encoding="utf-8"?>
<!-- Generator: Adobe Illustrator 27.0.0, SVG Export Plug-In . SVG Version: 6.00 Build 0)  -->
<svg version="1.1" id="Layer_1" xmlns="http://www.w3.org/2000/svg" xmlns:xlink="http://www.w3.org/1999/xlink" x="0px" y="0px"
	 viewBox="0 0 595.3 286.9" style="enable-background:new 0 0 595.3 286.9;" xml:space="preserve">
<style type="text/css">
	.st0{fill:#00DBE9;}
	.st1{fill:#2D3034;}
	.st2{fill-rule:evenodd;clip-rule:evenodd;fill:#2D3034;}
</style>
<circle class="st0" cx="567.5" cy="184.5" r="24.1"/>
<path class="st1" d="M108.4,57.8c2.5,2.2,6.3,2.2,8.6-0.2l19.8-19.7c2.3-2.3,2.4-6.2-0.1-8.4C100-3.4,51.2-2.3,26.2,25.7
	c-12.5,14-19,35.8-11.1,56.7c8.3,21.7,29.8,36.5,61,41.8c22.4,3.8,26.7,12.2,27.7,15.7c1.6,5.4-0.3,13.4-5.4,19.9
	c-7.3,9.2-32.1,16.1-50.4-5.1c-2.2-2.5-5.9-3.3-8.6-1.4L16.3,169c-2.7,1.9-3.5,5.6-1.4,8.2c34.5,44.5,91.4,36.6,114.6,7.5
	c10.8-13.5,18.8-34.8,12.6-56c-6.7-23.1-27.7-38.6-59.3-43.9C60,81,54,72.3,52.4,68.2C50.6,63.3,51.8,57,56,52.3
	C62.8,44.7,85.1,37.9,108.4,57.8z"/>
<path class="st1" d="M331.7,8.4c-3.3,0-6,2.7-6,6V202c0,3.3,2.7,6,6,6h28c3.3,0,6-2.7,6-6V14.4c0-3.3-2.7-6-6-6H331.7z"/>
<path class="st2" d="M494.6,197v5.1c0,3.3,2.7,6,6,6h27.9c3.3,0,6-2.7,6-6v-73.9v-0.1V128c0-0.1,0-0.1,0-0.2
	c0-44.1-35.8-79.9-79.9-79.9s-79.9,35.8-79.9,79.9s35.8,79.9,79.9,79.9C469.2,207.6,482.8,203.8,494.6,197z M494.6,128.4
	c0-22.1-17.9-39.9-39.9-39.9c-22.1,0-39.9,17.9-39.9,39.9c0,22.1,17.9,39.9,39.9,39.9C476.7,168.3,494.6,150.4,494.6,128.4z"/>
<path class="st2" d="M233.2,208c21.1,0,40.2-8.2,54.5-21.5c2.6-2.4,2.2-6.5-0.6-8.6L264.5,161c-2.3-1.7-5.5-1.5-7.9,0.2
	c-6.6,4.8-14.6,7.6-23.4,7.6c-11.2,0-21.3-4.6-28.5-12c-3.2-3.3-0.5-8.2,4.1-8.2h92.9l0,0l0,0l0,0h4.9c2.2,0,4.2-1.5,4.7-3.7
	c1.1-5.4,1.7-10.9,1.7-16.6c0-44.1-35.8-79.9-79.9-79.9s-79.9,35.8-79.9,79.9C153.3,172.3,189.1,208,233.2,208z M267.1,107.6
	c2.2,3.5-0.7,7.7-4.8,7.7h-58.1c-4.2,0-7-4.1-4.8-7.7c7.1-11.3,19.6-18.8,33.9-18.8S260,96.3,267.1,107.6z"/>
<path class="st1" d="M497.3,55.8c0-2.8,2.2-5,5-5h27.5c2.8,0,5,2.2,5,5v117.5c0,2.8-2.2,5-5,5h-27.5c-2.8,0-5-2.2-5-5V55.8z"/>
<path class="st1" d="M184,276.7c-3.4,0-6.7-0.6-9.7-1.9c-3-1.3-5.3-3-7.6-5.3c-2.1-2.4-3.8-5.1-5.1-8.3c-1.1-3.2-1.7-6.7-1.7-10.4
	c0-3.4,0.6-7,1.9-9.9c1.3-3.2,3-5.9,5.3-8.1c2.1-2.4,4.9-4,7.8-5.3c3-1.3,6.2-1.9,9.7-1.9c2.4,0,4.9,0.2,7,1.1
	c2.4,0.8,4.6,1.7,6.2,3c1.9,1.3,3.4,2.7,4.6,4.6l-5.1,5.3c-1.3-1.3-2.7-2.4-4.3-3.4c-1.3-1.1-2.7-1.7-4.3-2.1
	c-1.3-0.6-3-0.8-4.3-0.8c-2.4,0-4.6,0.6-6.7,1.3c-1.9,0.8-3.8,2.1-5.3,3.8c-1.7,1.7-2.7,3.4-3.4,5.7c-0.8,2.1-1.3,4.6-1.3,7
	c0,2.7,0.6,5.1,1.3,7.6c0.8,2.1,2.1,4,3.4,5.7c1.7,1.7,3.2,2.7,5.3,3.8c2.1,0.8,4.6,1.3,7,1.3c1.7,0,3.2-0.2,4.6-0.6
	c1.7-0.6,3-1.1,4.3-1.9s2.7-1.9,3.8-3l3.8,6.2c-1.1,1.3-2.7,2.4-4.6,3.4c-1.9,1.1-4,1.9-6.2,2.4C188.9,276.4,186.5,276.7,184,276.7z
	"/>
<path class="st1" d="M210.7,276.2V223h7.6v53.2H210.7z"/>
<path class="st1" d="M244.8,276.7c-3.8,0-7-0.8-9.9-2.4c-3-1.7-5.1-4-6.7-7c-1.7-3-2.4-6.4-2.4-10.2c0-3.8,0.8-7.2,2.4-9.9
	c1.7-3,4-5.3,6.7-7c3-1.7,6.2-2.7,9.9-2.7s7,0.8,9.7,2.7c3,1.7,5.1,4,7,7c1.7,3,2.4,6.2,2.4,9.9c0,3.8-0.8,7.2-2.4,10.2
	c-1.7,3-4,5.1-7,7C251.8,275.9,248.6,276.7,244.8,276.7z M244.8,270c2.1,0,4.3-0.6,5.9-1.7c1.9-1.1,3.2-2.7,4-4.6
	c1.1-1.9,1.7-4,1.3-6.7c0-2.4-0.6-4.6-1.3-6.7c-1.1-1.9-2.4-3.4-4-4.6c-1.9-1.1-3.8-1.7-5.9-1.7c-2.1,0-4.3,0.6-6.2,1.7
	c-1.9,1.1-3.2,2.7-4,4.6c-1.1,1.9-1.7,4-1.3,6.4c0,2.4,0.6,4.6,1.3,6.7c1.1,1.9,2.4,3.4,4,4.6C240.5,269.4,242.6,270,244.8,270z"/>
<path class="st1" d="M285.4,276.7c-2.7,0-5.1-0.6-7-1.9c-1.9-1.3-3.4-3-4.6-5.1c-1.1-2.1-1.7-4.9-1.7-8.1v-23.1h7.6v21.2
	c0,2.1,0.2,4,1.1,5.7c0.8,1.7,1.7,2.7,3,3.8c1.3,0.8,3,1.3,4.9,1.3c1.3,0,2.7-0.2,3.8-0.6c1.1-0.6,2.1-1.1,3-1.9
	c0.8-0.8,1.7-1.9,1.9-3c0.6-1.1,0.8-2.4,0.8-3.8v-22.6h7.6v37.7h-7.6v-7.8l1.3-0.8c-0.6,1.9-1.7,3.4-3,4.9c-1.3,1.4-3,2.7-4.9,3.4
	C289.4,276.4,287.5,276.7,285.4,276.7z"/>
<path class="st1" d="M331.3,276.7c-3.4,0-6.4-0.8-9.1-2.4c-2.7-1.7-4.9-4-6.4-7c-1.7-3-2.4-6.4-2.4-10.2c0-3.8,0.8-7.2,2.4-9.9
	c1.7-3,3.8-5.3,6.4-7c2.7-1.7,5.7-2.7,9.1-2.7c1.9,0,3.8,0.2,5.3,0.8c1.9,0.6,3.2,1.3,4.9,2.4c1.3,1.1,2.4,2.1,3.2,3.4
	c0.8,1.1,1.3,2.4,1.3,3.8l-2.1,0.2v-25.2h7.6v53.2h-7.6v-8.9h1.3c0,1.1-0.2,2.4-1.1,3.4c-0.8,1.1-1.9,2.1-3,3
	c-1.3,1.1-2.7,1.7-4.3,2.4C334.5,276.4,332.9,276.7,331.3,276.7z M332,270.5c2.1,0,4.3-0.6,5.9-1.7c1.7-1.1,3-2.7,4-4.6
	s1.7-4.3,1.7-6.7c0-2.5-0.6-4.9-1.7-6.7c-1.1-1.9-2.4-3.4-4-4.9c-1.7-1.1-3.8-1.7-5.9-1.7c-2.1,0-4.3,0.6-5.9,1.7
	c-1.7,1.1-3,2.7-4,4.9c-1.1,1.9-1.3,4.3-1.3,6.7c0,2.5,0.6,4.9,1.3,6.7c1.1,1.9,2.4,3.4,4,4.6C328,270,329.9,270.5,332,270.5z"/>
<path class="st1" d="M400.8,276.7c-1.7,0-3.2-0.2-4.9-0.8c-1.7-0.6-3-1.3-4.3-2.1c-1.3-0.8-2.4-1.9-3.2-3c-0.8-1.1-1.3-2.1-1.7-3.2
	l1.9-1.1v9.1h-7.6v-52.7h7.6v24l-1.1-0.6c0.2-1.1,0.8-2.1,1.7-3.2c0.8-1.1,1.9-1.9,3-2.7c1.3-0.8,2.7-1.7,4-1.9
	c1.7-0.6,3-0.8,4.6-0.8c3.4,0,6.4,0.8,9.1,2.4c2.7,1.7,4.9,4,6.2,7c1.7,3,2.4,6.2,2.4,9.9c0,3.8-0.8,7.2-2.4,10.2
	c-1.7,3-3.4,5.3-6.2,7C407,275.9,404,276.7,400.8,276.7z M399.5,270c2.1,0,4-0.6,5.9-1.7c1.7-1.1,3-2.7,4-4.6
	c1.1-1.9,1.7-4.3,1.7-6.7c0-2.4-0.6-4.6-1.7-6.4c-1.1-1.9-2.4-3.4-4-4.6c-1.7-1.1-3.8-1.7-5.9-1.7c-2.1,0-4.3,0.6-5.9,1.7
	c-1.7,1.1-3,2.7-4,4.6s-1.7,4-1.7,6.4c0,2.4,0.6,4.9,1.7,6.7c1.1,1.9,2.4,3.4,4,4.6C395.2,269.4,397.4,270,399.5,270z"/>
<path class="st1" d="M443.8,276.7c-3.8,0-7.2-0.8-10.2-2.4c-3-1.7-5.3-4-7-6.7c-1.7-3-2.4-6.2-2.4-9.9c0-3,0.6-5.7,1.3-8.1
	c1.1-2.4,2.1-4.6,4-6.4c1.7-1.9,3.8-3.2,6.2-4c2.4-1.1,5.1-1.7,7.8-1.7c2.4,0,4.9,0.6,6.7,1.3c2.1,0.8,4,2.1,5.3,3.8
	c1.7,1.7,2.7,3.4,3.4,5.9c0.8,2.1,1.3,4.6,1.3,7.2v3.2h-30.9l-1.7-5.9h26l-1.1,1.3v-1.4c-0.2-1.7-0.6-3-1.7-4.3
	c-0.8-1.3-2.1-2.1-3.4-3c-1.3-0.8-3-1.1-4.6-1.1c-2.7,0-4.9,0.6-6.4,1.7c-1.9,1.1-3.2,2.4-4,4.3c-0.8,1.9-1.3,4.3-1.3,7
	c0,2.7,0.6,4.9,1.7,7c1.1,1.9,2.7,3.4,4.6,4.6c1.9,1.1,4.3,1.7,7,1.7c1.9,0,3.4-0.2,5.1-0.8c1.7-0.6,3.4-1.7,5.1-3.4l3.8,5.1
	c-1.1,1.1-2.7,2.1-4.3,3c-1.5,0.8-3.4,1.7-5.1,2.1C447.4,276.7,445.5,276.7,443.8,276.7z"/>
<path class="st1" d="M472.8,276.2v-47.2h7.6v47.2H472.8z M465,245.5v-7.2h23.9v7.2H465z"/>
<path class="st1" d="M500.2,276.2v-47.2h7.6v47.2H500.2z M492.5,245.5v-7.2h23.9v7.2H492.5z"/>
<path class="st1" d="M540.6,276.7c-3.8,0-7.2-0.8-10.2-2.4c-3-1.7-5.3-4-7-6.7c-1.7-3-2.4-6.2-2.4-9.9c0-3,0.6-5.7,1.3-8.1
	c1.1-2.4,2.1-4.6,4-6.4c1.7-1.9,3.8-3.2,6.2-4c2.4-1.1,5.1-1.7,7.8-1.7c2.4,0,4.9,0.6,6.7,1.3c2.1,0.8,4,2.1,5.3,3.8
	c1.7,1.7,2.7,3.4,3.4,5.9c0.8,2.1,1.3,4.6,1.3,7.2v3.2h-30.9l-1.7-5.9h26l-1.1,1.3v-1.4c-0.2-1.7-0.6-3-1.7-4.3
	c-0.8-1.3-2.1-2.1-3.4-3c-1.3-0.8-3-1.1-4.6-1.1c-2.7,0-4.9,0.6-6.4,1.7c-1.9,1.1-3.2,2.4-4,4.3c-0.8,1.9-1.3,4.3-1.3,7
	c0,2.7,0.6,4.9,1.7,7c1.1,1.9,2.7,3.4,4.6,4.6c1.9,1.1,4.3,1.7,7,1.7c1.9,0,3.4-0.2,5.1-0.8c1.7-0.6,3.4-1.7,5.1-3.4l3.8,5.1
	c-1.1,1.1-2.7,2.1-4.3,3c-1.7,0.8-3.4,1.7-5.1,2.1C544,276.7,542.1,276.7,540.6,276.7z"/>
<path class="st1" d="M564.9,276.2v-37.7h7.6v11.8l-0.8-3c0.6-1.9,1.3-3.4,2.7-4.9c1.3-1.7,2.7-2.7,4.3-3.4c1.7-0.8,3.4-1.3,5.1-1.3
	c0.8,0,1.7,0,2.4,0.2c0.8,0.2,1.3,0.2,1.9,0.6l-1.9,8.1c-0.6-0.2-1.3-0.6-1.9-0.6c-0.6-0.2-1.3-0.2-1.9-0.2c-1.3,0-2.4,0.2-3.8,0.8
	c-1.1,0.6-2.1,1.1-3,2.1c-0.8,0.8-1.7,1.9-2.1,3c-0.6,1.1-0.8,2.4-0.8,3.8v20.7L564.9,276.2L564.9,276.2z"/>
</svg>
